<?xml version="1.0" encoding="UTF-8"?>
<svg width="372px" height="369px" viewBox="0 0 372 369" version="1.1" xmlns="http://www.w3.org/2000/svg" xmlns:xlink="http://www.w3.org/1999/xlink">
    <title>z-Guide/Logo-LAIA (sim)</title>
    <defs>
        <polygon id="path-1" points="0.703375342 0.0741717241 370.839403 0.0741717241 370.839403 368 0.703375342 368"></polygon>
    </defs>
    <g id="z-Guide/Logo-LAIA-(sim)" stroke="none" stroke-width="1" fill="none" fill-rule="evenodd">
        <g id="Group" transform="translate(0.500000, 0.500000)">
            <g id="Group-3">
                <mask id="mask-2" fill="white">
                    <use xlink:href="#path-1"></use>
                </mask>
                <g id="Clip-2"></g>
                <path d="M183.281115,366.325758 C122.833526,325.677227 62.385937,285.026151 0.703375342,243.548006 C18.3512863,170.842282 35.9610808,98.2917924 53.8605603,24.5477786 C80.5039507,42.7331166 106.034341,60.157551 131.958601,77.8491924 C149.92669,51.8843166 167.539026,26.4334959 185.781553,0.0741717241 C203.897026,26.2324545 221.392471,51.5025924 239.607047,77.8059303 C265.551636,60.1168338 291.071862,42.7153028 317.707629,24.5528683 C335.571533,98.047489 353.168622,170.447834 370.839403,243.151013 C309.139053,285.082137 248.211197,326.491572 187.242684,367.837386 C186.648067,368.239468 185.468999,367.778854 184.564368,367.720323 C184.574533,367.468386 184.605026,367.224082 184.658389,366.982323 C185.458834,366.318123 186.261821,365.651379 187.064807,364.987179 C229.048793,305.171006 271.032779,245.357379 313.16669,185.33253 C288.271574,149.351213 263.810985,113.993379 239.014971,78.1545717 C220.830889,90.9296062 185.949266,115.382854 185.949266,115.382854 C185.949266,115.382854 149.921608,90.3850131 132.136478,77.9382614 C107.101601,114.19442 82.9179918,149.218882 58.3710055,184.775213 C100.100882,245.426089 141.690999,305.878468 183.281115,366.325758" id="Fill-1" fill="#C0E6E7" mask="url(#mask-2)"></path>
            </g>
            <path d="M184.323029,366.604386 C142.595427,306.111635 100.867825,245.613791 59,184.917301 C83.6281321,149.334229 107.891686,114.283426 133.009322,78 C150.853245,90.4561126 169.609887,103.334984 187,115.472754 C169.903079,127.763329 151.439629,139.315348 134.018922,151.840223 C134.408995,154.0075 168.867984,297.620799 185.704856,367.258898 C185.651317,367.503385 185.620723,367.747873 185.610525,368 C185.182209,367.536493 184.751344,367.072986 184.323029,366.604386" id="Fill-4" fill="#95D5D7"></path>
            <path d="M186,116.250009 C202.85926,104.376553 220.822008,91.7824899 238.975012,79 C263.728647,114.859722 288.149968,150.238191 313,186.240507 C270.938099,246.300385 229.025867,306.148919 187.113635,366 C204.1251,295.075005 221.139102,224.150011 238.175935,153.115525 C221.068073,140.524008 202.983561,128.747312 186,116.250009" id="Fill-14" fill="#95D5D7"></path>
            <path d="M186.770442,116 C186.770442,116 221.874556,140.298462 239,152.902667 C221.945658,224.008739 204.91417,295.005209 187.885221,366.001679 C187.082783,366.666936 186.282885,367.334743 185.480447,368 C168.710513,298.29836 134.388522,154.567085 134,152.397989 C151.351447,139.862603 186.770442,116 186.770442,116" id="Fill-15" fill="#78C9CC"></path>
        </g>
    </g>
</svg>